<mxfile host="app.diagrams.net" modified="2021-02-02T08:53:27.005Z" agent="5.0 (Windows NT 10.0; Win64; x64) AppleWebKit/537.36 (KHTML, like Gecko) Chrome/87.0.4280.88 Safari/537.36" etag="5RX13JMfX7A9vUaidF9N" version="14.2.9" type="github">
  <diagram id="5Xk1HbFzoAKY_heKDIqf" name="Page-1">
    <mxGraphModel dx="1422" dy="762" grid="1" gridSize="10" guides="1" tooltips="1" connect="1" arrows="1" fold="1" page="1" pageScale="1" pageWidth="827" pageHeight="1169" math="0" shadow="0">
      <root>
        <mxCell id="0" />
        <mxCell id="1" parent="0" />
        <mxCell id="JoZrEqiItv-6HEst-3wa-1" value="" style="rounded=1;whiteSpace=wrap;html=1;fillColor=#fad7ac;strokeColor=#b46504;" parent="1" vertex="1">
          <mxGeometry x="200" y="20" width="480" height="610" as="geometry" />
        </mxCell>
        <mxCell id="JoZrEqiItv-6HEst-3wa-5" value="" style="rounded=1;whiteSpace=wrap;html=1;fillColor=#b0e3e6;strokeColor=#0e8088;" parent="1" vertex="1">
          <mxGeometry x="230" y="85" width="180" height="280" as="geometry" />
        </mxCell>
        <mxCell id="JoZrEqiItv-6HEst-3wa-8" value="method1（）" style="rounded=0;whiteSpace=wrap;html=1;" parent="1" vertex="1">
          <mxGeometry x="250" y="150" width="140" height="30" as="geometry" />
        </mxCell>
        <mxCell id="JoZrEqiItv-6HEst-3wa-9" value="堆内存" style="rounded=0;whiteSpace=wrap;html=1;fillColor=#bac8d3;strokeColor=#23445d;" parent="1" vertex="1">
          <mxGeometry x="249" y="410" width="351" height="140" as="geometry" />
        </mxCell>
        <mxCell id="JoZrEqiItv-6HEst-3wa-10" value="0 this-ref" style="rounded=0;whiteSpace=wrap;html=1;align=left;" parent="1" vertex="1">
          <mxGeometry x="250" y="180" width="140" height="30" as="geometry" />
        </mxCell>
        <mxCell id="JoZrEqiItv-6HEst-3wa-12" value="1 局部变量 var1" style="rounded=0;whiteSpace=wrap;html=1;align=left;" parent="1" vertex="1">
          <mxGeometry x="250" y="210" width="140" height="30" as="geometry" />
        </mxCell>
        <mxCell id="JoZrEqiItv-6HEst-3wa-13" value="static_method2(param1)" style="rounded=0;whiteSpace=wrap;html=1;align=left;" parent="1" vertex="1">
          <mxGeometry x="250" y="240" width="140" height="30" as="geometry" />
        </mxCell>
        <mxCell id="JoZrEqiItv-6HEst-3wa-14" value="0 param1" style="rounded=0;whiteSpace=wrap;html=1;align=left;" parent="1" vertex="1">
          <mxGeometry x="250" y="270" width="140" height="30" as="geometry" />
        </mxCell>
        <mxCell id="JoZrEqiItv-6HEst-3wa-15" value="1 局部变量 varX" style="rounded=0;whiteSpace=wrap;html=1;align=left;" parent="1" vertex="1">
          <mxGeometry x="250" y="300" width="140" height="30" as="geometry" />
        </mxCell>
        <mxCell id="JoZrEqiItv-6HEst-3wa-17" style="edgeStyle=orthogonalEdgeStyle;rounded=0;orthogonalLoop=1;jettySize=auto;html=1;exitX=0.5;exitY=1;exitDx=0;exitDy=0;" parent="1" source="JoZrEqiItv-6HEst-3wa-5" target="JoZrEqiItv-6HEst-3wa-5" edge="1">
          <mxGeometry relative="1" as="geometry" />
        </mxCell>
        <mxCell id="JoZrEqiItv-6HEst-3wa-19" value="线程t1--线程栈" style="text;html=1;strokeColor=none;fillColor=none;align=center;verticalAlign=middle;whiteSpace=wrap;rounded=0;" parent="1" vertex="1">
          <mxGeometry x="265" y="110" width="110" height="20" as="geometry" />
        </mxCell>
        <mxCell id="JoZrEqiItv-6HEst-3wa-20" value="" style="rounded=1;whiteSpace=wrap;html=1;fillColor=#b0e3e6;strokeColor=#0e8088;" parent="1" vertex="1">
          <mxGeometry x="450" y="85" width="180" height="280" as="geometry" />
        </mxCell>
        <mxCell id="JoZrEqiItv-6HEst-3wa-21" value="线程tx--线程栈" style="text;html=1;strokeColor=none;fillColor=none;align=center;verticalAlign=middle;whiteSpace=wrap;rounded=0;" parent="1" vertex="1">
          <mxGeometry x="470" y="110" width="110" height="20" as="geometry" />
        </mxCell>
        <mxCell id="JoZrEqiItv-6HEst-3wa-22" value="method1（）" style="rounded=0;whiteSpace=wrap;html=1;" parent="1" vertex="1">
          <mxGeometry x="460" y="150" width="140" height="30" as="geometry" />
        </mxCell>
        <mxCell id="JoZrEqiItv-6HEst-3wa-23" value="0 this-ref" style="rounded=0;whiteSpace=wrap;html=1;align=left;" parent="1" vertex="1">
          <mxGeometry x="460" y="180" width="140" height="30" as="geometry" />
        </mxCell>
        <mxCell id="JoZrEqiItv-6HEst-3wa-24" value="1 局部变量 var1" style="rounded=0;whiteSpace=wrap;html=1;align=left;" parent="1" vertex="1">
          <mxGeometry x="460" y="210" width="140" height="30" as="geometry" />
        </mxCell>
        <mxCell id="JoZrEqiItv-6HEst-3wa-25" value="static_method2(param1)" style="rounded=0;whiteSpace=wrap;html=1;align=left;" parent="1" vertex="1">
          <mxGeometry x="460" y="240" width="140" height="30" as="geometry" />
        </mxCell>
        <mxCell id="JoZrEqiItv-6HEst-3wa-26" value="0 param1" style="rounded=0;whiteSpace=wrap;html=1;align=left;" parent="1" vertex="1">
          <mxGeometry x="460" y="270" width="140" height="30" as="geometry" />
        </mxCell>
        <mxCell id="JoZrEqiItv-6HEst-3wa-27" value="1 局部变量 varX" style="rounded=0;whiteSpace=wrap;html=1;align=left;" parent="1" vertex="1">
          <mxGeometry x="460" y="300" width="140" height="30" as="geometry" />
        </mxCell>
        <mxCell id="JoZrEqiItv-6HEst-3wa-28" value="Object" style="rounded=0;whiteSpace=wrap;html=1;" parent="1" vertex="1">
          <mxGeometry x="270" y="430" width="80" height="30" as="geometry" />
        </mxCell>
        <mxCell id="JoZrEqiItv-6HEst-3wa-29" value="Object" style="rounded=0;whiteSpace=wrap;html=1;" parent="1" vertex="1">
          <mxGeometry x="270" y="480" width="80" height="30" as="geometry" />
        </mxCell>
        <mxCell id="JoZrEqiItv-6HEst-3wa-30" value="Object" style="rounded=0;whiteSpace=wrap;html=1;" parent="1" vertex="1">
          <mxGeometry x="390" y="430" width="80" height="30" as="geometry" />
        </mxCell>
        <mxCell id="JoZrEqiItv-6HEst-3wa-31" value="Object" style="rounded=0;whiteSpace=wrap;html=1;" parent="1" vertex="1">
          <mxGeometry x="510" y="430" width="80" height="30" as="geometry" />
        </mxCell>
        <mxCell id="JoZrEqiItv-6HEst-3wa-32" value="Object" style="rounded=0;whiteSpace=wrap;html=1;" parent="1" vertex="1">
          <mxGeometry x="510" y="480" width="80" height="30" as="geometry" />
        </mxCell>
        <mxCell id="tO71BtRKxgOAwEvLUXh_-1" value="" style="rounded=1;whiteSpace=wrap;html=1;fillColor=#dae8fc;strokeColor=#6c8ebf;" vertex="1" parent="1">
          <mxGeometry x="125" y="790" width="730" height="630" as="geometry" />
        </mxCell>
        <mxCell id="tO71BtRKxgOAwEvLUXh_-3" value="进程 1.2.3...n" style="rounded=0;whiteSpace=wrap;html=1;fillColor=#f8cecc;strokeColor=#b85450;" vertex="1" parent="1">
          <mxGeometry x="190" y="850" width="470" height="70" as="geometry" />
        </mxCell>
        <mxCell id="tO71BtRKxgOAwEvLUXh_-4" value="" style="rounded=0;whiteSpace=wrap;html=1;fillColor=#60a917;strokeColor=#2D7600;fontColor=#ffffff;" vertex="1" parent="1">
          <mxGeometry x="190" y="980" width="600" height="70" as="geometry" />
        </mxCell>
        <mxCell id="tO71BtRKxgOAwEvLUXh_-5" value="" style="rounded=0;whiteSpace=wrap;html=1;fillColor=#b1ddf0;strokeColor=#10739e;" vertex="1" parent="1">
          <mxGeometry x="190" y="1109" width="600" height="71" as="geometry" />
        </mxCell>
        <mxCell id="tO71BtRKxgOAwEvLUXh_-6" value="操作系统" style="rounded=0;whiteSpace=wrap;html=1;fillColor=#1ba1e2;strokeColor=#006EAF;fontColor=#ffffff;" vertex="1" parent="1">
          <mxGeometry x="690" y="850" width="130" height="70" as="geometry" />
        </mxCell>
        <mxCell id="tO71BtRKxgOAwEvLUXh_-7" value="java进程" style="rounded=0;whiteSpace=wrap;html=1;fillColor=#60a917;strokeColor=#2D7600;fontColor=#ffffff;" vertex="1" parent="1">
          <mxGeometry x="220" y="855" width="100" height="60" as="geometry" />
        </mxCell>
        <mxCell id="tO71BtRKxgOAwEvLUXh_-9" value="" style="shape=singleArrow;direction=south;whiteSpace=wrap;html=1;fillColor=#60a917;strokeColor=#2D7600;fontColor=#ffffff;" vertex="1" parent="1">
          <mxGeometry x="255" y="920" width="30" height="50" as="geometry" />
        </mxCell>
        <mxCell id="tO71BtRKxgOAwEvLUXh_-10" value="栈空间&lt;br&gt;Stack" style="rounded=0;whiteSpace=wrap;html=1;fillColor=#ffe6cc;strokeColor=#d79b00;" vertex="1" parent="1">
          <mxGeometry x="210" y="985" width="90" height="60" as="geometry" />
        </mxCell>
        <mxCell id="tO71BtRKxgOAwEvLUXh_-12" value="堆空间&lt;br&gt;Heap" style="rounded=0;whiteSpace=wrap;html=1;fillColor=#b1ddf0;strokeColor=#10739e;" vertex="1" parent="1">
          <mxGeometry x="340" y="985" width="90" height="60" as="geometry" />
        </mxCell>
        <mxCell id="tO71BtRKxgOAwEvLUXh_-13" value="非堆" style="rounded=0;whiteSpace=wrap;html=1;fillColor=#fa6800;strokeColor=#C73500;fontColor=#ffffff;" vertex="1" parent="1">
          <mxGeometry x="470" y="985" width="90" height="60" as="geometry" />
        </mxCell>
        <mxCell id="tO71BtRKxgOAwEvLUXh_-14" value="JVM自身" style="rounded=0;whiteSpace=wrap;html=1;fillColor=#6d8764;strokeColor=#3A5431;fontColor=#ffffff;" vertex="1" parent="1">
          <mxGeometry x="610" y="985" width="90" height="60" as="geometry" />
        </mxCell>
        <mxCell id="tO71BtRKxgOAwEvLUXh_-15" value="" style="shape=singleArrow;direction=south;whiteSpace=wrap;html=1;fillColor=#b1ddf0;strokeColor=#10739e;" vertex="1" parent="1">
          <mxGeometry x="370" y="1050" width="30" height="50" as="geometry" />
        </mxCell>
        <mxCell id="tO71BtRKxgOAwEvLUXh_-16" value="新生代" style="rounded=0;whiteSpace=wrap;html=1;fillColor=#6d8764;strokeColor=#3A5431;fontColor=#ffffff;" vertex="1" parent="1">
          <mxGeometry x="200" y="1116.75" width="130" height="55.5" as="geometry" />
        </mxCell>
        <mxCell id="tO71BtRKxgOAwEvLUXh_-17" value="老年代" style="rounded=0;whiteSpace=wrap;html=1;fillColor=#647687;strokeColor=#314354;fontColor=#ffffff;" vertex="1" parent="1">
          <mxGeometry x="330" y="1116.75" width="90" height="55.5" as="geometry" />
        </mxCell>
        <mxCell id="tO71BtRKxgOAwEvLUXh_-18" value="MetaSpace" style="rounded=0;whiteSpace=wrap;html=1;gradientColor=#ea6b66;fillColor=#f8cecc;strokeColor=#b85450;" vertex="1" parent="1">
          <mxGeometry x="560" y="1114" width="90" height="55.5" as="geometry" />
        </mxCell>
        <mxCell id="tO71BtRKxgOAwEvLUXh_-19" value="" style="rounded=0;whiteSpace=wrap;html=1;fillColor=#6d8764;strokeColor=#3A5431;fontColor=#ffffff;" vertex="1" parent="1">
          <mxGeometry x="190" y="1230" width="600" height="80" as="geometry" />
        </mxCell>
        <mxCell id="tO71BtRKxgOAwEvLUXh_-20" value="" style="shape=singleArrow;direction=south;whiteSpace=wrap;html=1;fillColor=#6d8764;strokeColor=#3A5431;fontColor=#ffffff;" vertex="1" parent="1">
          <mxGeometry x="265" y="1180" width="30" height="50" as="geometry" />
        </mxCell>
        <mxCell id="tO71BtRKxgOAwEvLUXh_-22" value="新生儿Eden" style="rounded=0;whiteSpace=wrap;html=1;fillColor=#d0cee2;strokeColor=#56517e;" vertex="1" parent="1">
          <mxGeometry x="205" y="1250" width="95" height="50" as="geometry" />
        </mxCell>
        <mxCell id="tO71BtRKxgOAwEvLUXh_-23" value="S0" style="rounded=0;whiteSpace=wrap;html=1;fillColor=#bac8d3;strokeColor=#23445d;" vertex="1" parent="1">
          <mxGeometry x="300" y="1250" width="40" height="50" as="geometry" />
        </mxCell>
        <mxCell id="tO71BtRKxgOAwEvLUXh_-24" value="S1" style="rounded=0;whiteSpace=wrap;html=1;fillColor=#bac8d3;strokeColor=#23445d;" vertex="1" parent="1">
          <mxGeometry x="340" y="1250" width="40" height="50" as="geometry" />
        </mxCell>
        <mxCell id="tO71BtRKxgOAwEvLUXh_-25" value="&amp;nbsp; &amp;nbsp; &amp;nbsp; &amp;nbsp; &amp;nbsp; &amp;nbsp; &amp;nbsp; &amp;nbsp;方法区" style="rounded=0;whiteSpace=wrap;html=1;gradientColor=#ea6b66;fillColor=#f8cecc;strokeColor=#b85450;" vertex="1" parent="1">
          <mxGeometry x="560" y="1245" width="130" height="50" as="geometry" />
        </mxCell>
        <mxCell id="tO71BtRKxgOAwEvLUXh_-26" value="" style="shape=singleArrow;direction=south;whiteSpace=wrap;html=1;fillColor=#f8cecc;strokeColor=#b85450;gradientColor=#ea6b66;" vertex="1" parent="1">
          <mxGeometry x="590" y="1180" width="30" height="50" as="geometry" />
        </mxCell>
        <mxCell id="tO71BtRKxgOAwEvLUXh_-27" value="常量区" style="rounded=0;whiteSpace=wrap;html=1;fillColor=#bac8d3;strokeColor=#23445d;" vertex="1" parent="1">
          <mxGeometry x="570" y="1250" width="60" height="40" as="geometry" />
        </mxCell>
        <mxCell id="tO71BtRKxgOAwEvLUXh_-28" value="TLAB" style="rounded=0;whiteSpace=wrap;html=1;fillColor=#bac8d3;strokeColor=#23445d;" vertex="1" parent="1">
          <mxGeometry x="209" y="1300" width="40" height="20" as="geometry" />
        </mxCell>
        <mxCell id="tO71BtRKxgOAwEvLUXh_-29" value="TLAB" style="rounded=0;whiteSpace=wrap;html=1;fillColor=#bac8d3;strokeColor=#23445d;" vertex="1" parent="1">
          <mxGeometry x="250" y="1300" width="40" height="20" as="geometry" />
        </mxCell>
      </root>
    </mxGraphModel>
  </diagram>
</mxfile>
